# xmcd
#
# Track frame offsets: 
#        150
#        18390
#        32425
#        52276
#        70287
#        87523
#        103083
#        123428
#        147678
#        164279
#        180074
#
# Disc length: 2649 seconds
#
# Revision: 0
# Processed by: cddbd v1.5.1PL0 Copyright (c) Steve Scherf et al.
# Submitted via: ExactAudioCopy v0.95a5
#
DISCID=970a570b
DTITLE=Manny Jhovanny - Me Engañaste
DYEAR=2001
DGENRE=Latin
TTITLE0=Te Echo De Menos
TTITLE1=Me Engañaste
TTITLE2=Vamos Bailar
TTITLE3=Lagrimas De Amor
TTITLE4=El Swing Lo Tengo Yo
TTITLE5=Quiero Hablarte
TTITLE6=No Me Celes Tanto
TTITLE7=Yo Se Que Te Hago Falta
TTITLE8=Tu Te Cree Que Ta'
TTITLE9=Llevame Contigo
TTITLE10=No Puedo Vivir Sin Ella
EXTD=
EXTT0=
EXTT1=
EXTT2=
EXTT3=
EXTT4=
EXTT5=
EXTT6=
EXTT7=
EXTT8=
EXTT9=
EXTT10=
PLAYORDER=
